<?xml version="1.0" standalone="no"?>
<!DOCTYPE svg PUBLIC "-//W3C//DTD SVG 20010904//EN"
 "http://www.w3.org/TR/2001/REC-SVG-20010904/DTD/svg10.dtd">
<svg version="1.0" xmlns="http://www.w3.org/2000/svg"
 width="626.000000pt" height="626.000000pt" viewBox="0 0 626.000000 626.000000"
 preserveAspectRatio="xMidYMid meet">
<metadata>
Created by potrace 1.16, written by Peter Selinger 2001-2019
</metadata>
<g transform="translate(0.000000,626.000000) scale(0.100000,-0.100000)"
fill="#000000" stroke="none">
<path d="M3154 6061 c-121 -33 -253 -109 -382 -221 l-74 -63 58 89 c32 49 69
105 83 124 l26 34 -31 -22 c-43 -30 -117 -118 -196 -232 -79 -114 -114 -182
-185 -360 -30 -74 -61 -146 -70 -160 -19 -29 -137 -179 -139 -177 -1 1 2 28 7
61 5 32 8 61 5 63 -19 19 -91 -350 -116 -587 -10 -102 -18 -152 -35 -227 -3
-13 -19 -30 -35 -38 -29 -15 -70 -79 -70 -110 0 -41 -26 -13 -145 155 -107
152 -169 233 -249 325 -51 59 -55 66 -26 45 19 -13 91 -78 159 -145 142 -138
139 -114 -9 57 -113 131 -158 161 -324 219 -107 37 -127 41 -190 37 -159 -11
-373 -165 -411 -298 l-7 -25 22 28 c12 15 30 32 40 37 18 10 19 9 4 -32 -8
-24 -22 -88 -30 -143 -13 -89 -58 -283 -68 -293 -3 -2 -2 25 1 60 4 42 2 60
-5 53 -21 -21 -68 -211 -153 -615 -19 -91 17 -170 78 -170 40 0 69 23 103 83
33 58 35 55 45 -48 9 -105 24 -153 59 -190 57 -60 117 -59 178 6 l37 39 3 -48
3 -47 17 55 c25 78 38 179 38 297 0 57 4 105 10 108 6 4 10 -13 10 -45 0 -84
28 -185 60 -220 41 -44 91 -42 136 5 l33 35 5 -53 c3 -28 8 -83 12 -122 8 -91
36 -201 68 -262 l24 -48 -5 45 -6 45 38 -43 c56 -64 106 -87 190 -86 70 0 116
16 158 52 26 23 29 11 12 -44 -8 -27 -15 -51 -15 -53 0 -15 77 72 101 114 19
33 29 43 29 30 0 -53 -78 -464 -104 -545 l-14 -45 -2 40 c0 22 -4 58 -8 80
l-7 40 -13 -65 c-16 -84 -78 -441 -103 -595 -59 -364 -70 -441 -80 -555 -20
-216 1 -474 45 -557 12 -25 13 -23 9 28 l-5 54 40 -62 c45 -69 97 -103 157
-103 74 0 122 36 188 140 41 65 71 94 89 87 7 -2 19 -38 27 -78 47 -260 103
-516 119 -546 4 -6 6 27 4 75 l-2 87 29 -78 c36 -94 62 -138 102 -172 58 -48
145 -26 204 52 32 42 85 177 85 216 0 9 5 17 10 17 6 0 10 -24 11 -52 0 -29 3
-71 7 -93 7 -37 8 -38 16 -15 4 14 10 117 12 230 3 113 7 220 10 238 l5 34 25
-27 c19 -21 32 -26 55 -23 l29 5 0 -184 c0 -115 4 -183 10 -183 6 0 10 30 11
68 1 37 4 78 8 92 6 21 9 16 20 -33 20 -89 76 -193 124 -228 46 -33 100 -38
147 -14 17 9 30 12 30 7 0 -16 -41 -196 -47 -206 -4 -6 4 -2 16 9 46 40 104
196 130 350 36 212 51 303 53 325 2 14 18 -60 37 -165 43 -246 63 -321 106
-411 36 -75 138 -194 165 -194 10 0 11 3 4 8 -6 4 -28 33 -48 64 -36 57 -36
58 -11 48 44 -17 82 -11 115 16 40 34 55 65 71 142 13 60 13 61 24 34 11 -26
12 -24 18 30 10 84 62 278 80 295 13 13 20 13 62 -6 25 -11 60 -32 76 -45 39
-33 81 -41 117 -22 33 17 47 50 58 134 7 55 17 64 34 32 26 -49 129 -66 187
-31 42 26 80 93 97 172 15 75 18 68 37 -86 15 -127 25 -147 34 -70 13 101 -2
359 -29 525 -14 85 -44 286 -66 445 -96 701 -112 805 -118 750 -1 -16 1 -104
6 -195 5 -91 8 -166 6 -168 -5 -7 -36 112 -64 246 -37 177 -70 440 -69 550 l1
87 13 -64 c17 -74 45 -164 51 -158 2 2 -3 82 -11 178 -20 230 -20 217 10 211
63 -12 125 35 170 127 18 39 32 57 36 49 8 -15 34 -147 44 -222 24 -176 112
-358 196 -402 34 -17 36 -12 10 24 -10 15 -23 36 -29 48 -10 20 -9 20 41 16
43 -3 58 1 87 20 68 46 122 154 137 270 5 43 23 59 23 21 0 -9 18 -53 40 -99
29 -59 54 -95 92 -129 91 -82 195 -121 111 -41 l-46 43 31 -5 c54 -7 97 7 134
43 103 103 135 270 108 557 -14 146 -28 180 -30 68 0 -47 -5 -92 -10 -100 -8
-13 -10 -13 -10 1 0 9 -14 61 -30 115 -36 116 -82 327 -104 477 -20 134 -19
168 3 91 21 -74 61 -175 74 -189 6 -6 7 -3 4 10 -3 11 -9 43 -12 70 -41 316
-133 748 -181 855 -94 209 -309 238 -492 66 -56 -52 -57 -51 -15 17 59 94 -64
-10 -132 -113 -60 -90 -97 -171 -151 -331 -47 -141 -76 -199 -117 -238 -43
-39 -68 -24 -116 68 -22 43 -41 82 -41 86 0 4 20 -11 45 -34 24 -22 52 -41 61
-41 15 0 15 2 2 18 -29 35 -157 241 -191 308 -19 38 -47 110 -62 159 -34 115
-84 258 -125 360 -18 44 -52 135 -76 201 -62 172 -217 494 -231 481 -2 -2 14
-53 35 -113 22 -60 43 -118 47 -129 4 -12 -2 -9 -16 10 -41 55 -154 161 -210
199 -86 57 -151 78 -254 82 -67 3 -108 -1 -161 -15z m299 -174 c140 -69 267
-230 378 -478 95 -213 277 -666 313 -780 20 -63 54 -148 76 -189 l39 -75 -69
75 -70 75 20 -49 c29 -69 103 -170 144 -195 47 -30 98 -27 160 8 98 57 137
111 301 416 159 297 323 427 441 351 31 -21 72 -94 90 -158 8 -29 19 -141 24
-248 21 -413 33 -500 127 -920 70 -317 88 -469 61 -520 -17 -30 -53 -49 -81
-42 -42 11 -107 91 -153 187 -30 63 -58 105 -81 124 l-36 29 12 77 c14 95 15
357 1 333 -9 -15 -30 -140 -65 -386 -30 -215 -89 -425 -125 -447 -33 -21 -103
113 -155 295 -33 114 -54 211 -99 454 -26 139 -38 140 -31 2 4 -65 10 -140 14
-166 l8 -48 -38 -11 c-55 -17 -90 -50 -133 -129 -39 -72 -54 -86 -81 -76 -33
13 -31 77 6 267 22 112 24 194 7 232 -17 37 -27 31 -21 -13 5 -36 -5 -102 -41
-267 -8 -38 -16 -100 -17 -137 -1 -38 -6 -68 -10 -68 -15 0 -46 -72 -59 -135
-12 -58 -15 -282 -5 -360 44 -339 108 -673 222 -1155 43 -181 46 -207 51 -365
7 -252 -20 -390 -77 -390 -40 0 -82 68 -135 216 -63 175 -108 272 -136 292
-20 14 -22 21 -17 74 4 32 9 141 12 243 l5 185 -29 -185 c-60 -385 -86 -489
-135 -547 -20 -23 -25 -24 -47 -13 -13 7 -47 34 -74 61 -28 27 -64 53 -81 58
-36 10 -88 -5 -129 -37 -15 -12 -31 -22 -35 -22 -4 0 -24 15 -44 32 l-36 33
15 50 c46 149 125 658 124 789 l-2 101 -7 -70 c-10 -92 -42 -253 -79 -401 -17
-66 -39 -170 -51 -233 -27 -144 -65 -248 -129 -355 -69 -114 -93 -182 -136
-384 -38 -185 -66 -271 -96 -298 -17 -15 -20 -15 -44 0 -65 43 -106 193 -140
521 -32 312 -69 492 -121 602 -29 60 -42 77 -80 99 -33 20 -53 25 -75 20 -28
-5 -31 -4 -26 17 37 147 88 506 86 607 l-1 65 -9 -60 c-54 -384 -174 -819
-287 -1039 -78 -152 -125 -190 -253 -201 -127 -12 -140 -18 -221 -102 -118
-124 -129 -133 -155 -133 -19 0 -29 10 -48 52 -41 90 -58 220 -59 443 0 230
14 327 90 624 130 507 154 606 173 721 29 176 38 275 48 515 8 223 6 375 -7
388 -4 4 -10 -18 -14 -49 -8 -68 -63 -239 -101 -314 -30 -60 -112 -151 -166
-185 -48 -31 -111 -49 -143 -41 -37 9 -88 58 -114 108 -12 24 -38 102 -57 174
-20 71 -50 172 -66 225 -30 96 -30 98 -19 195 13 108 39 204 77 277 13 27 22
51 20 53 -7 8 -66 -64 -88 -108 -29 -57 -45 -116 -64 -243 -18 -119 -47 -210
-70 -219 -15 -6 -38 22 -49 60 -4 11 -10 74 -15 138 -9 123 -23 156 -63 156
-22 0 -22 6 -3 60 55 156 47 179 -16 45 -45 -96 -71 -196 -98 -385 -23 -154
-35 -198 -63 -222 -26 -23 -43 -14 -67 35 -16 34 -41 169 -41 225 0 7 -11 24
-25 38 -21 21 -23 29 -14 45 22 42 0 26 -70 -51 -40 -44 -77 -80 -82 -80 -26
0 0 104 69 275 60 150 88 247 127 438 42 207 67 281 114 344 81 107 210 142
326 89 105 -48 254 -214 394 -439 76 -123 157 -219 203 -243 18 -9 40 -13 58
-9 31 7 94 69 105 104 5 18 10 20 21 10 17 -14 38 1 60 42 20 40 69 250 115
499 25 135 49 235 65 269 13 30 26 52 28 50 2 -2 -3 -58 -10 -124 -14 -128
-17 -212 -9 -203 3 3 14 54 25 114 23 133 36 195 56 254 21 63 148 311 200
393 58 90 192 227 275 283 131 87 217 114 345 111 83 -3 99 -6 167 -40z m-591
-4126 c55 -44 108 -224 141 -481 l15 -115 -36 -37 c-20 -21 -40 -38 -44 -38
-5 0 -16 16 -25 35 -19 40 -50 46 -76 17 -43 -48 -93 -202 -127 -397 -33 -184
-77 -295 -116 -295 -40 0 -103 164 -157 405 -20 88 -48 193 -61 234 -14 40
-23 77 -20 82 3 5 15 9 26 9 66 0 142 67 211 185 35 61 115 254 138 335 7 25
19 53 27 63 20 23 73 22 104 -2z m1429 -484 l51 -131 -20 -35 c-10 -20 -34
-73 -52 -119 -18 -45 -37 -85 -42 -88 -13 -8 -49 26 -41 39 3 5 1 7 -4 4 -6
-4 -17 0 -24 9 -19 23 -64 44 -94 44 -36 0 -99 -34 -118 -64 -28 -42 -54 -116
-102 -292 -54 -196 -69 -231 -91 -213 -42 35 -91 187 -134 416 -31 170 -64
256 -104 275 -14 6 -26 16 -26 21 0 8 94 180 107 196 2 3 19 -10 38 -29 25
-24 43 -33 65 -32 50 3 59 5 55 12 -5 8 67 50 87 50 8 0 35 -19 59 -42 93 -90
137 -107 187 -73 39 28 82 120 107 230 l7 30 20 -38 c10 -21 42 -97 69 -170z"/>
<path d="M2845 5266 c-49 -23 -130 -89 -190 -154 -105 -117 -174 -321 -131
-387 26 -39 55 -32 137 35 53 43 90 65 129 76 93 26 140 45 170 71 29 24 91
124 117 188 13 30 13 30 -20 -7 l-33 -37 4 59 c12 161 -54 217 -183 156z"/>
<path d="M3436 5229 c-31 -25 -63 -88 -81 -164 l-11 -49 -27 39 c-38 56 -35
20 6 -69 38 -82 84 -122 177 -157 78 -29 114 -60 160 -139 68 -117 124 -140
185 -76 82 87 72 301 -19 425 -81 110 -215 199 -314 208 -38 4 -52 1 -76 -18z"/>
<path d="M3137 4676 c-48 -18 -118 -72 -158 -122 -124 -156 -209 -490 -209
-823 0 -125 13 -173 57 -211 38 -34 52 -36 91 -16 42 22 64 52 131 181 35 66
74 132 88 147 24 25 30 27 88 21 49 -4 71 -1 108 15 45 20 146 113 169 155 10
19 6 18 -27 -7 -31 -24 -37 -26 -31 -10 26 68 39 161 40 289 1 119 -2 151 -22
212 -24 78 -63 128 -125 159 -43 23 -152 28 -200 10z"/>
<path d="M4053 4328 c-30 -33 -49 -75 -68 -148 -20 -78 -17 -302 6 -362 13
-34 14 -27 16 110 1 165 21 264 72 365 26 50 27 57 12 57 -10 0 -27 -10 -38
-22z"/>
<path d="M2240 4189 c0 -5 13 -27 30 -47 63 -79 96 -208 107 -421 8 -143 24
-126 31 33 9 208 -20 331 -97 414 -29 31 -71 44 -71 21z"/>
<path d="M3246 3472 c-9 -15 -23 -228 -36 -557 -6 -148 -12 -304 -15 -345 -9
-153 13 3 34 240 41 467 47 711 17 662z"/>
<path d="M2354 3283 c17 -50 42 -216 51 -338 6 -88 3 -141 -45 -635 -10 -112
-18 -206 -16 -207 5 -5 56 264 82 437 42 277 36 488 -21 677 -9 29 -27 65 -40
80 l-25 28 14 -42z"/>
<path d="M4086 3253 c-13 -41 -26 -168 -32 -303 -7 -154 4 -321 37 -570 10
-80 19 -163 20 -185 2 -40 2 -40 9 10 9 59 4 266 -11 455 -6 74 -11 242 -11
373 0 130 -1 237 -3 237 -2 0 -6 -8 -9 -17z"/>
<path d="M4360 1780 c-22 -31 -22 -33 -9 -138 l14 -107 38 94 c47 115 48 174
6 179 -20 2 -32 -4 -49 -28z"/>
<path d="M2210 1738 c-39 -43 -49 -124 -29 -247 6 -36 13 -82 16 -101 6 -45
13 -32 53 109 17 63 33 140 33 172 2 83 -30 113 -73 67z"/>
<path d="M3380 1657 c-13 -7 -35 -28 -48 -47 -22 -32 -23 -42 -18 -116 9 -106
18 -141 33 -123 15 20 83 225 83 253 0 34 -20 48 -50 33z"/>
<path d="M2836 1411 c2 -2 -8 -17 -21 -33 -22 -26 -28 -44 -27 -83 0 -5 6 -38
12 -73 l13 -63 48 88 c65 119 64 174 -3 170 -14 -1 -25 -4 -22 -6z"/>
</g>
</svg>
